#!OML:ASF F:\VICON\USERDATA\INSTALL\rory3\rory3.ASF
:FULLY-SPECIFIED
:DEGREES
983
root 9.51792 18.0081 1.25937 -357.014 -57.1827 -2.19514
lowerback 11.4655 2.00983 4.00928
upperback 0.956674 3.21751 1.28879
thorax -5.27721 1.49104 -1.40881
lowerneck -15.6597 -5.15003 -10.1527
upperneck 32.0004 -7.46704 7.26071
head 14.2533 -3.67376 3.39443
rclavicle 5.99336e-014 -1.59028e-014
rhumerus -29.4705 -4.7009 -81.3915
rradius 31.9941
rwrist 4.95676
rhand -15.7784 7.06777
rfingers 7.12502
rthumb 10.414 -22.6543
lclavicle 5.99336e-014 -1.59028e-014
lhumerus -36.7461 -3.10106 88.2745
lradius 36.1601
lwrist -7.22975
lhand -14.8449 24.7221
lfingers 7.12502
lthumb 11.3143 54.397
rfemur -2.57485 -3.23369 27.0303
rtibia 23.2764
rfoot -17.1499 0.691254
rtoes 10.129
lfemur -22.1939 -1.50644 -16.3892
ltibia 40.2964
lfoot -5.78014 7.59115
ltoes -16.6
984
root 9.43718 17.9998 1.32255 -356.922 -57.1253 -2.2991
lowerback 11.4288 2.00144 4.1235
upperback 0.984174 3.21635 1.26903
thorax -5.22037 1.48924 -1.49077
lowerneck -15.8227 -5.14602 -10.1017
upperneck 32.029 -7.45755 7.25678
head 14.2987 -3.65931 3.38399
rclavicle -5.68524e-014 -1.59028e-015
rhumerus -29.2012 -4.72761 -81.3713
rradius 32.0736
rwrist 5.04121
rhand -15.5607 7.33043
rfingers 7.12502
rthumb 10.6239 -22.381
lclavicle -5.68524e-014 -1.59028e-015
lhumerus -36.6323 -2.807 88.1483
lradius 35.7789
lwrist -7.34951
lhand -14.6883 24.4971
lfingers 7.12502
lthumb 11.4654 54.1635
rfemur -2.09635 -3.26591 27.0868
rtibia 23.0728
rfoot -17.3433 0.249033
rtoes 8.39513
lfemur -22.3176 -1.78681 -16.3353
ltibia 38.2985
lfoot -5.73651 7.22593
ltoes -17.7001
985
root 9.35563 18.0003 1.38513 -356.852 -57.0399 -2.30531
lowerback 11.3806 1.97843 4.20939
upperback 0.979497 3.19177 1.2168
thorax -5.19201 1.47562 -1.58764
lowerneck -16.0983 -5.14839 -10.1278
upperneck 32.1798 -7.46553 7.34126
head 14.4351 -3.64949 3.42198
rclavicle -2.15681e-014 -1.59028e-014
rhumerus -29.0292 -4.66946 -81.4043
rradius 32.267
rwrist 4.97069
rhand -15.6219 7.3247
rfingers 7.12502
rthumb 10.5649 -22.3898
lclavicle -2.15681e-014 -1.59028e-014
lhumerus -36.611 -2.71247 88.0446
lradius 35.5088
lwrist -7.1899
lhand -14.6639 24.4525
lfingers 7.12502
lthumb 11.4889 54.1176
rfemur -1.65372 -3.14824 27.1074
rtibia 22.8205
rfoot -17.4214 -0.192892
rtoes 7.12098
lfemur -22.4804 -2.23693 -16.2539
ltibia 36.1939
lfoot -5.76172 6.486
ltoes -16.4965
986
root 9.27075 17.9972 1.4478 -356.725 -57.0795 -2.34913
lowerback 11.2598 1.98034 4.19442
upperback 0.9884 3.18626 1.22761
thorax -5.11695 1.47546 -1.56165
lowerneck -16.2848 -5.1569 -10.1788
upperneck 32.2458 -7.45286 7.36066
head 14.5093 -3.64338 3.44026
rclavicle 8.12035e-014 1.59028e-015
rhumerus -28.8007 -4.48518 -81.4966
rradius 32.4395
rwrist 4.84268
rhand -15.8033 7.03143
rfingers 7.12502
rthumb 10.3899 -22.6919
lclavicle 8.12035e-014 1.59028e-015
lhumerus -36.5362 -2.5708 87.9674
lradius 35.2073
lwrist -7.08303
lhand -14.3668 24.4914
lfingers 7.12502
lthumb 11.7754 54.1404
rfemur -1.17447 -3.02061 27.128
rtibia 22.4762
rfoot -17.4539 -0.457597
rtoes 6.15296
lfemur -22.582 -2.49722 -16.1715
ltibia 33.9928
lfoot -5.55119 5.60329
ltoes -15.2735
987
root 9.18601 17.9932 1.51311 -356.504 -57.1714 -2.5523
lowerback 11.1947 2.01055 4.2363
upperback 0.939998 3.2333 1.28295
thorax -5.13011 1.4975 -1.53254
lowerneck -16.1692 -5.12465 -10.1051
upperneck 32.2255 -7.37584 7.18256
head 14.4522 -3.62748 3.36826
rclavicle 6.5102e-014 -4.77083e-015
rhumerus -28.7188 -4.11661 -81.5991
rradius 32.6362
rwrist 4.36118
rhand -15.7311 7.42122
rfingers 7.12502
rthumb 10.4596 -22.2986
lclavicle 6.5102e-014 -4.77083e-015
lhumerus -36.5562 -2.17028 87.8762
lradius 34.8209
lwrist -7.3508
lhand -14.3609 24.5114
lfingers 7.12502
lthumb 11.7811 54.1601
rfemur -0.628122 -2.81109 27.2077
rtibia 22.1074
rfoot -17.2522 -0.316911
rtoes 7.85535
lfemur -22.5801 -2.69949 -16.02
ltibia 31.7425
lfoot -5.27296 4.71222
ltoes -14.8858
988
root 9.10107 17.9952 1.57697 -356.205 -57.2564 -2.8448
lowerback 11.1401 2.04993 4.35701
upperback 0.882243 3.30225 1.32081
thorax -5.15232 1.52804 -1.56952
lowerneck -16.0061 -5.08332 -10.0379
upperneck 32.2069 -7.30041 7.0364
head 14.3877 -3.61027 3.31141
rclavicle 1.45113e-013 -3.97569e-015
rhumerus -28.7405 -3.53426 -81.7909
rradius 32.9663
rwrist 3.45953
rhand -15.455 7.97592
rfingers 7.12502
rthumb 10.7258 -21.7303
lclavicle 1.45113e-013 -3.97569e-015
lhumerus -36.6809 -1.83173 87.7993
lradius 34.5292
lwrist -7.5322
lhand -14.8456 24.4762
lfingers 7.12502
lthumb 11.3137 54.1511
rfemur -0.120829 -2.51516 27.3489
rtibia 21.78
rfoot -16.9567 -0.0573943
rtoes 10.6508
lfemur -22.5796 -2.95753 -15.7459
ltibia 29.4863
lfoot -5.10034 3.63321
ltoes -15.0414
989
root 9.01597 17.9908 1.64114 -356.007 -57.2897 -2.9749
lowerback 11.0382 2.10112 4.39311
upperback 0.855386 3.37075 1.32598
thorax -5.11818 1.56184 -1.59029
lowerneck -15.8746 -5.1158 -10.0566
upperneck 32.0842 -7.34499 7.03787
head 14.3093 -3.63262 3.30627
rclavicle -1.59028e-015 -3.18055e-014
rhumerus -28.6739 -3.41343 -81.7988
rradius 33.1303
rwrist 3.35029
rhand -15.676 7.58792
rfingers 7.12502
rthumb 10.5127 -22.1292
lclavicle -1.59028e-015 -3.18055e-014
lhumerus -36.7533 -1.74042 87.7881
lradius 34.2839
lwrist -7.57362
lhand -15.1288 24.745
lfingers 7.12502
lthumb 11.0405 54.4346
rfemur 0.344097 -2.44438 27.3922
rtibia 21.4347
rfoot -16.9803 -0.0624202
rtoes 10.6325
lfemur -22.619 -3.32234 -15.5433
ltibia 27.3146
lfoot -5.04809 2.62692
ltoes -15.082
